Coordinates
version=1
nRows=10
nColumns=63
inDegrees=yes

Units are S.I. units (second, meters, Newtons, ...)
If the header above contains a line with 'inDegrees', this indicates whether rotational values are in degrees (yes) or radians (no).

endheader
time	pelvis_tilt	pelvis_list	pelvis_rotation	pelvis_tx	pelvis_ty	pelvis_tz	hip_flexion_r	hip_adduction_r	hip_rotation_r	knee_angle_r	knee_angle_r_beta	ankle_angle_r	subtalar_angle_r	mtp_angle_r	hip_flexion_l	hip_adduction_l	hip_rotation_l	knee_angle_l	knee_angle_l_beta	ankle_angle_l	subtalar_angle_l	mtp_angle_l	L5_S1_Flex_Ext	L5_S1_Lat_Bending	L5_S1_axial_rotation	L4_L5_Flex_Ext	L4_L5_Lat_Bending	L4_L5_axial_rotation	L3_L4_Flex_Ext	L3_L4_Lat_Bending	L3_L4_axial_rotation	L2_L3_Flex_Ext	L2_L3_Lat_Bending	L2_L3_axial_rotation	L1_L2_Flex_Ext	L1_L2_Lat_Bending	L1_L2_axial_rotation	L1_T12_Flex_Ext	L1_T12_Lat_Bending	L1_T12_axial_rotation	Abs_r3	Abs_r2	Abs_r1	Abs_t1	Abs_t2	neck_flexion	neck_bending	neck_rotation	arm_flex_r	arm_add_r	arm_rot_r	elbow_flex_r	pro_sup_r	wrist_flex_r	wrist_dev_r	arm_flex_l	arm_add_l	arm_rot_l	elbow_flex_l	pro_sup_l	wrist_flex_l	wrist_dev_l
      0.00000000	     -2.80300659	     -3.93567806	     90.24773201	      0.22869752	      0.64818364	      0.71691024	      9.25328399	     -3.28363196	    -14.49690654	     14.41026690	      0.25150660	     13.85092698	      8.95894030	      0.00000000	      9.84283648	      2.29873945	     -4.86487771	     10.54698798	      0.18407967	     13.12203421	     -4.70806106	      0.00000000	      0.14833050	     -0.25592344	     -0.20609978	      0.27546457	     -0.34037817	     -0.21898102	      0.24369218	     -0.62225224	     -0.21898102	      0.16952693	     -0.62225224	     -0.18033731	      0.13773970	     -0.52187907	     -0.16745607	      0.08475605	     -0.39642540	     -0.15457484	      1.05950993	     -2.89505709	     -1.14626516	      0.00000000	      0.00000000	     25.89568165	      5.21891618	      0.18674584	     10.74755388	     -9.50439064	     40.48746531	     68.55356114	     59.25173378	     -3.30645865	     28.35027750	      5.32187282	    -17.86685918	     30.51544632	     76.87249350	     89.22344266	     10.66504877	     27.69959373
      0.01666667	     -2.78674112	     -3.77713142	     90.46222049	      0.22790083	      0.64844070	      0.71659314	      9.23297300	     -3.29265375	    -13.72867589	     14.36537503	      0.25072309	     15.36333417	      8.86292937	      0.00000000	      9.62906485	      2.40476034	     -4.28867433	     10.53220665	      0.18382168	     13.51088355	     -5.75737784	      0.00000000	      0.14093512	     -0.25946739	     -0.20543848	      0.26173062	     -0.34509162	     -0.21827838	      0.23154231	     -0.63086900	     -0.21827838	      0.16107475	     -0.63086900	     -0.17975867	      0.13087235	     -0.52910589	     -0.16691876	      0.08053033	     -0.40191498	     -0.15407886	      1.00668549	     -2.93514695	     -1.14258717	      0.00000000	      0.00000000	     25.50331837	      5.99521845	      0.87609977	      9.55350823	     -8.96789662	     38.39882825	     68.71714598	     62.31749879	     -2.49212151	     29.36423000	      6.03304512	    -17.41616877	     30.21966090	     76.50239238	     89.23200346	     15.36774464	     30.63356822
      0.03333333	     -2.74148633	     -3.63066635	     90.70352529	      0.22713773	      0.64872804	      0.71630582	      9.19681620	     -3.27834240	    -13.14166175	     14.40056430	      0.25133726	     16.25386046	      8.58765239	      0.00000000	      9.42788350	      2.41967815	     -4.16471645	     10.51637203	      0.18354532	     13.99881837	     -5.75200423	      0.00000000	      0.13742269	     -0.25289181	     -0.22834975	      0.25520768	     -0.33634610	     -0.24262161	      0.22577174	     -0.61488114	     -0.24262161	      0.15706039	     -0.61488114	     -0.19980604	      0.12761071	     -0.51569698	     -0.18553418	      0.07852332	     -0.39172941	     -0.17126232	      0.98159653	     -2.86076271	     -1.27001283	      0.00000000	      0.00000000	     25.02479074	      6.55501086	      1.67735599	      8.86220408	     -8.70783436	     37.31766595	     68.80732720	     63.18722433	     -2.26286415	     29.80471629	      6.61204805	    -17.30540367	     30.77292308	     76.15185022	     89.24338400	     16.57304755	     31.52785784
      0.05000000	     -2.70891282	     -3.50722127	     90.68503844	      0.22684522	      0.64890458	      0.71615210	      9.21319401	     -3.18486770	    -12.19273150	     14.48934112	      0.25288671	     16.61692315	      7.71022855	      0.00000000	      9.28411673	      2.34891912	     -4.89944226	     10.59572992	      0.18493037	     14.64205963	     -4.84024267	      0.00000000	      0.13306913	     -0.24861998	     -0.20350460	      0.24712268	     -0.33066457	     -0.21622364	      0.21861927	     -0.60449462	     -0.21622364	      0.15208471	     -0.60449462	     -0.17806653	      0.12356799	     -0.50698587	     -0.16534749	      0.07603570	     -0.38511235	     -0.15262845	      0.95049947	     -2.81243895	     -1.13183155	      0.00000000	      0.00000000	     24.75827327	      6.58697183	      1.56182378	      8.48226940	     -8.53655922	     36.54191144	     68.86550133	     64.84503446	     -1.71293062	     30.26966772	      7.09969668	    -17.09900127	     31.06945622	     75.66531445	     89.26829651	     18.29103020	     32.17626174
      0.06666667	     -2.66988784	     -3.35137035	     90.64659843	      0.22656337	      0.64919033	      0.71589897	      9.14653826	     -3.11043499	    -11.52995770	     14.58729550	      0.25459634	     16.66730230	      7.10751371	      0.00000000	      9.01694351	      2.26861325	     -5.67924451	     10.49863586	      0.18323576	     15.16000741	     -3.66139740	      0.00000000	      0.12598135	     -0.23682544	     -0.20190684	      0.23395997	     -0.31497784	     -0.21452602	      0.20697476	     -0.57581738	     -0.21452602	      0.14398409	     -0.57581738	     -0.17666849	      0.11698628	     -0.48293444	     -0.16404931	      0.07198574	     -0.36684261	     -0.15143013	      0.89987219	     -2.67901678	     -1.12294530	      0.00000000	      0.00000000	     24.40316300	      6.44463623	      1.71514401	      8.51191338	     -8.63612056	     36.73219725	     68.83670237	     63.93183679	     -2.05949345	     30.22109978	      7.39226320	    -17.16202588	     31.92549263	     75.46248719	     89.26438982	     16.74625249	     32.18566132
      0.08333333	     -2.60397629	     -3.36334945	     90.75631906	      0.22614089	      0.64911932	      0.71576831	      9.20928143	     -3.07771581	    -11.50667607	     14.69287096	      0.25643897	     16.62161202	      7.06457588	      0.00000000	      9.07060906	      2.22328377	     -5.68753889	     10.65476437	      0.18596072	     15.49087722	     -3.44379598	      0.00000000	      0.13553404	     -0.22267565	     -0.22930402	      0.25170027	     -0.29615861	     -0.24363552	      0.22266887	     -0.54141357	     -0.24363552	      0.15490185	     -0.54141357	     -0.20064102	      0.12585691	     -0.45408018	     -0.18630951	      0.07744415	     -0.34492458	     -0.17197801	      0.96810609	     -2.51895148	     -1.27532015	      0.00000000	      0.00000000	     24.39374098	      6.31541886	      1.68599144	      8.55941671	     -8.76872615	     36.90685053	     68.88793545	     63.78797530	     -2.04133340	     29.95742113	      7.58515228	    -17.16994975	     32.41478577	     75.25345538	     89.27292170	     16.47940566	     32.13477266
      0.10000000	     -2.61259531	     -3.43001159	     90.64410724	      0.22604766	      0.64898877	      0.71568085	      9.41708426	     -3.12271201	    -11.46759045	     14.94489818	      0.26083768	     16.59076646	      7.23565797	      0.00000000	      9.08902037	      2.24279805	     -5.74862733	     10.61416882	      0.18525219	     15.63675478	     -3.38041293	      0.00000000	      0.14892579	     -0.21612218	     -0.17534829	      0.27657009	     -0.28744250	     -0.18630755	      0.24467018	     -0.52547946	     -0.18630755	      0.17020729	     -0.52547946	     -0.15342975	      0.13829249	     -0.44071634	     -0.14247048	      0.08509620	     -0.33477325	     -0.13151121	      1.06376203	     -2.44481729	     -0.97523456	      0.00000000	      0.00000000	     24.43208822	      5.71952987	      1.16811121	      8.35394064	     -8.75517384	     36.38277966	     69.04441449	     64.73720401	     -1.88579667	     30.00592970	      7.87671182	    -16.97636564	     32.79735205	     74.82677236	     89.24691255	     16.92416063	     32.35078875
      0.11666667	     -2.51850348	     -3.49820656	     90.72799352	      0.22578101	      0.64889929	      0.71558424	      9.52735827	     -3.04726946	    -11.52521624	     15.02702903	      0.26227113	     16.58910158	      7.27465039	      0.00000000	      9.17074138	      2.15370932	     -5.81615901	     10.68222416	      0.18643998	     15.76452981	     -3.09419665	      0.00000000	      0.15495256	     -0.19674051	     -0.19241690	      0.28776239	     -0.26166488	     -0.20444295	      0.25457155	     -0.47835487	     -0.20444295	      0.17709528	     -0.47835487	     -0.16836478	      0.14388894	     -0.40119324	     -0.15633873	      0.08853989	     -0.30475105	     -0.14431267	      1.10681061	     -2.22556797	     -1.07016505	      0.00000000	      0.00000000	     24.62438821	      5.28676029	      0.94477353	      8.35585606	     -8.87746592	     36.48481371	     69.12528685	     64.28683323	     -2.28229120	     29.48561543	      7.86689124	    -16.93054608	     33.08595181	     74.77579780	     89.21125826	     15.81088458	     32.14729699
      0.13333333	     -2.43035485	     -3.57634378	     90.64512881	      0.22566354	      0.64881177	      0.71539228	      9.66297401	     -2.95941466	    -11.44776090	     15.10170594	      0.26357449	     16.72632729	      7.39808476	      0.00000000	      9.21134640	      2.06880569	     -5.89502106	     10.65447131	      0.18595560	     15.74729250	     -3.07453736	      0.00000000	      0.16095470	     -0.17574547	     -0.18038233	      0.29890898	     -0.23374147	     -0.19165623	      0.26443248	     -0.42730753	     -0.19165623	      0.18395513	     -0.42730753	     -0.15783454	      0.14946254	     -0.35838016	     -0.14656065	      0.09196952	     -0.27222973	     -0.13528675	      1.14968336	     -1.98806787	     -1.00323243	      0.00000000	      0.00000000	     24.88483928	      4.84112256	      0.81302685	      8.26387114	     -9.00002532	     36.51687904	     69.16421678	     63.81679150	     -2.51414238	     28.76209739	      7.78667333	    -16.83551299	     33.21027503	     74.73788505	     89.16265122	     14.95262381	     31.87728253
      0.15000000	     -2.35888804	     -3.68152459	     90.41478093	      0.22594776	      0.64859723	      0.71547204	      9.88802992	     -2.82232165	    -10.98562078	     15.22290437	      0.26568980	     16.83849535	      6.96638915	      0.00000000	      9.32589083	      1.89264503	     -6.80437021	     10.71790915	      0.18706280	     15.94520691	     -2.06024268	      0.00000000	      0.16407643	     -0.15983882	     -0.14049718	      0.30470633	     -0.21258563	     -0.14927825	      0.26956116	     -0.38863210	     -0.14927825	      0.18752295	     -0.38863210	     -0.12293503	      0.15236137	     -0.32594332	     -0.11415396	      0.09375327	     -0.24759033	     -0.10537288	      1.17198151	     -1.80812867	     -0.78140315	      0.00000000	      0.00000000	     25.23961510	      4.47094915	      0.71115142	      8.15737268	     -9.08339403	     36.47212999	     69.18955970	     63.41869551	     -2.68355354	     28.03673151	      7.63069171	    -16.72002466	     32.97151251	     74.74682177	     89.12844328	     14.77707324	     31.50325687
